<svg id="Layer_1" data-name="Layer 1" xmlns="http://www.w3.org/2000/svg" viewBox="0 0 155.91 97.21"><defs><style>.cls-1{fill:#84b6dc;}.cls-2{fill:#3b92cf;}</style></defs><title>republicofwork-logo</title><path d="M14.89,28.54H24c3.76,0,7,1.72,7,5.49a4.68,4.68,0,0,1-3,4.48v.08a3.86,3.86,0,0,1,2.58,3c.49,2.22.07,4.87.75,5V47H26c-.52-.36-.31-2.63-.7-4.27-.34-1.42-.95-2.14-2.52-2.14h-2.5V47H14.89Zm5.39,8.17h2.88c1.55,0,2.4-.67,2.4-2s-.78-2-2.32-2h-3Z"/><path d="M32.62,28.54H47v4.38H38v2.5h7.5v4H38v2.89h9.23V47H32.62Z"/><path d="M49,28.54h8.48a7.52,7.52,0,0,1,5.25,1.7,6.27,6.27,0,0,1,2.07,4.87,6.1,6.1,0,0,1-6.35,6.24H54.34V47H49Zm5.38,8.63h2.92A2,2,0,0,0,59.39,35a2,2,0,0,0-2.19-2H54.34Z"/><path d="M65.91,39.93V28.54H71.3v11.7c0,1.7.93,2.75,2.91,2.75A2.59,2.59,0,0,0,77,40.13V28.54h5.39V39.93c0,4.53-2.71,7.37-8.23,7.37S65.91,44.54,65.91,39.93Z"/><path d="M84.36,28.54H93.9A6.58,6.58,0,0,1,98,29.72a4.46,4.46,0,0,1,1.76,3.64,3.49,3.49,0,0,1-2.3,3.53V37a4.48,4.48,0,0,1,3.17,4.44,5.13,5.13,0,0,1-2.11,4.4A7.52,7.52,0,0,1,94.08,47H84.36ZM93,35.7c1,0,1.73-.49,1.73-1.47A1.55,1.55,0,0,0,93,32.71H89.65v3Zm.49,7a1.8,1.8,0,1,0,0-3.59H89.65v3.59Z"/><path d="M101.94,28.54h5.39V42.35h7.88V47H101.94Z"/><path d="M116.55,28.54h5.39V47h-5.39Z"/><path d="M123.35,37.81c0-5.51,3.79-9.61,9.33-9.61a9.15,9.15,0,0,1,5.16,1.44,7.74,7.74,0,0,1,3.25,5.73H135.7a3,3,0,0,0-3.09-2.74c-2.55,0-3.79,2.17-3.79,5.18S130.26,43,132.66,43a3,3,0,0,0,3.19-2.88h5.44a7.93,7.93,0,0,1-2.39,5.1,8.37,8.37,0,0,1-6.22,2.19C127.07,47.4,123.35,43.33,123.35,37.81Z"/><path class="cls-1" d="M14.17,59.77c0-5.51,3.61-9.61,9.33-9.61s9.38,4.1,9.38,9.61-3.66,9.59-9.38,9.59S14.17,65.29,14.17,59.77Zm13.24,0c0-3-1.31-5.31-3.89-5.31s-3.89,2.3-3.89,5.31,1.31,5.29,3.89,5.29S27.41,62.79,27.41,59.77Z"/><path class="cls-1" d="M34.89,50.5h14.2V55H40.27v3h7.3v4.17h-7.3v6.7H34.89Z"/><path class="cls-1" d="M58.59,50.5H64l1.34,6.31c.44,2,.9,5.13.9,5.13h0s.49-2.76,1-4.87l1.42-6.57h4.86L74.93,57c.47,2.13.93,4.92.93,4.92h0s.49-3.12.93-5.18l1.34-6.26H83.7L78.85,68.92H73.41l-1.65-7.81c-.33-1.59-.64-3.58-.64-3.58h-.05s-.31,2-.65,3.58l-1.6,7.81H63.31Z"/><path class="cls-1" d="M83.82,59.77c0-5.51,3.61-9.61,9.33-9.61s9.38,4.1,9.38,9.61-3.66,9.59-9.38,9.59S83.82,65.29,83.82,59.77Zm13.25,0c0-3-1.31-5.31-3.89-5.31s-3.89,2.3-3.89,5.31,1.31,5.29,3.89,5.29S97.07,62.79,97.07,59.77Z"/><path class="cls-1" d="M104.54,50.5h9.15c3.76,0,7,1.72,7,5.49a4.67,4.67,0,0,1-3,4.48v.08a3.85,3.85,0,0,1,2.58,3c.49,2.21.08,4.87.75,5v.28h-5.31c-.52-.36-.31-2.63-.7-4.28-.33-1.41-1-2.13-2.52-2.13h-2.5v6.41h-5.39Zm5.39,8.17h2.89c1.54,0,2.39-.67,2.39-2s-.77-2-2.32-2h-3Z"/><path class="cls-1" d="M122.86,50.5h5.39v6l5.57-6H140l-6.88,7.42,7.27,11h-6.26l-4.69-7.29L128.25,63v6h-5.39Z"/><rect class="cls-2" x="14.89" y="18.21" width="125.5" height="5.36"/><rect class="cls-2" x="14.89" y="73.65" width="125.5" height="5.36"/></svg>