<svg id="Layer_1" data-name="Layer 1" xmlns="http://www.w3.org/2000/svg" viewBox="0 0 600 111"><title>source-academy-logo</title><path d="M64.44,36.58l-1.06-6c-.21-1-.43-1.28-.78-1.49-1-.57-3.05-1.21-6.75-1.21C48.53,27.85,45,31,45,36.08c0,5.89,5.11,7.6,10.79,9.37C62.88,47.66,70.9,50,70.9,60.65c0,11-8.66,15-18.81,15-6.46,0-12.71-1.63-14.91-2.7V61.29h4.76l1.35,6.25A1.73,1.73,0,0,0,44.7,69.1a24.77,24.77,0,0,0,8,1.21c7.24,0,11.57-2.77,11.57-8.95s-4.9-8.09-10.44-9.73c-7.17-2.13-15.48-4-15.48-14.7,0-10.15,8-14.48,17.82-14.48a37.49,37.49,0,0,1,13.21,2.49V37Z"/><path d="M77.15,56.39c0-11.15,5.68-18.81,17.82-18.81S111.8,45.31,111.8,56c0,11.93-5.4,19.67-17.54,19.67C81.91,75.63,77.15,67.68,77.15,56.39Zm28,0c0-9.3-3.41-13.42-10.29-13.42s-11,4.12-11,13.49,3.62,14,10.65,14S105.12,66.11,105.12,56.39Z"/><path d="M146.73,74.78l-.57-4.83-.14-.07c-3.27,2.77-7.46,5.75-13.7,5.75-7.81,0-10.22-4.76-10.22-12.92v-18c0-1.14-.07-1.42-1.14-1.63l-3.69-.92.57-3.83h10.72V61.22c0,6.18,1.06,9.16,5.54,9.16,4.83,0,8.95-3.34,11.43-6.18V44.6c0-1.14-.07-1.35-1.14-1.56l-3.55-.92.57-3.83H152V69c0,1.06.21,1.42,1,1.49l3.76.5v3.83Z"/><path d="M162.14,74.78v-3.9l3.55-.43c1-.14,1.14-.35,1.14-1.42V44.89c0-.78-.21-1.28-.92-1.49l-4-1.35.64-3.76h9.3l.71,4.9.21.07c2.34-2.63,5.82-5.68,10.65-5.68a22.37,22.37,0,0,1,5.11.64V48.93l-5-.21-.85-4.9c-.07-.57-.21-.71-.85-.71-3.2,0-6.82,2.91-8.45,4.47V69c0,1.14.07,1.35,1.14,1.42l6.53.57v3.83Z"/><path d="M221.79,72.65c-2.7,1.78-7.46,3-12.14,3-12.14,0-17.32-7.46-17.32-18.67,0-13.49,7.81-19.38,18.6-19.38a26,26,0,0,1,10.79,2.2v9.44L217,49l-.85-4.69a1,1,0,0,0-.85-1,16.12,16.12,0,0,0-4.83-.64c-6.32,0-11.36,3.69-11.36,13.85,0,9.94,4.69,13.77,11.57,13.77A19,19,0,0,0,219.73,68Z"/><path d="M256,72.43a26,26,0,0,1-12.92,3.2c-12.85,0-17-8.45-17-19,0-13,7.24-19,16.19-19,8.66,0,14.63,4.69,14.63,17,0,.92-.07,2.34-.14,3.55H232.87c.21,7.17,3.12,12.07,10.86,12.07A20.42,20.42,0,0,0,254,67.61ZM250.4,53.19c-.14-8.09-3.83-10.44-8.17-10.44-4.76,0-8.73,2.56-9.3,10.44Z"/><path d="M292.22,74.78V70.94L298,70.3l-3.83-11.22H274.4L270.64,70.3l5.75.64v3.83H260.06V71l3.05-.78c1.14-.28,1.49-.5,1.77-1.35l15.62-45.51h8.24L304.65,69c.28.85.85,1,1.7,1.21l3.2.78v3.83Zm-7.81-45.87L276,53.9h16.61Z"/><path d="M342.07,72.65c-2.7,1.78-7.46,3-12.14,3-12.14,0-17.32-7.46-17.32-18.67,0-13.49,7.81-19.38,18.6-19.38A26,26,0,0,1,342,39.77v9.44L337.24,49l-.85-4.69a1,1,0,0,0-.85-1,16.12,16.12,0,0,0-4.83-.64c-6.32,0-11.36,3.69-11.36,13.85,0,9.94,4.69,13.77,11.57,13.77A19,19,0,0,0,340,68Z"/><path d="M370.54,74.78l-.64-4.61-.21-.07c-3.41,3.19-7.38,5.54-12.85,5.54-8.87,0-10-6.11-10-9.73,0-7.1,4.4-10.44,12.92-11.15l9.58-.78V50.21c0-5.18-1-7.74-7.17-7.74-4.33,0-7.46.14-7.53,5.47l-6.11-.64c0-8.73,8.09-9.73,13.7-9.73,10.08,0,13.49,2.84,13.49,12.64V69c0,1.14.07,1.28,1.14,1.42l3.62.5v3.83Zm-1.21-16.33-8,.71c-6.11.57-7.81,2.34-7.81,6s1.63,5.4,5,5.4c4.19,0,8.66-3.41,10.86-5.47Z"/><path d="M412,74.78l-.57-4.69-.28-.07c-3.27,3.12-7,5.61-12.5,5.61-8.09,0-13.42-5.25-13.42-18.32,0-14,6.32-19.74,14.84-19.74A18.82,18.82,0,0,1,410.95,41V27.7a1.34,1.34,0,0,0-.92-1.42l-4.26-1.35.64-3.76h10.86V69c0,1.14.07,1.28,1.14,1.42l3.62.5v3.83Zm-1.21-28a16.55,16.55,0,0,0-9.73-3.83c-6.67,0-9.3,5.82-9.3,14.27,0,9.87,3.34,13.06,8.31,13.06,4.19,0,7.6-2.77,10.72-5.89Z"/><path d="M456.46,72.43a26,26,0,0,1-12.92,3.2c-12.85,0-17-8.45-17-19,0-13,7.24-19,16.19-19,8.66,0,14.63,4.69,14.63,17,0,.92-.07,2.34-.14,3.55H433.32c.21,7.17,3.12,12.07,10.86,12.07a20.42,20.42,0,0,0,10.22-2.56Zm-5.61-19.24c-.14-8.09-3.83-10.44-8.17-10.44-4.76,0-8.73,2.56-9.3,10.44Z"/><path d="M506.59,74.78v-3.9l3.41-.43c.92-.07,1.28-.43,1.28-1.42V51.92c0-4.47-1-8.73-6-8.73-3.83,0-7.17,1.92-9.37,3.48a40.26,40.26,0,0,1,.21,4.33V69c0,1.14.07,1.28,1.14,1.42l3.48.5v3.83H484.93v-3.9l3.41-.43c.92-.07,1.28-.43,1.28-1.42V51.84c0-4-.28-8.66-5.4-8.66-3.69,0-7.45,2.2-10.15,4.4V69c0,1.14.07,1.28,1.14,1.42l3.83.5v3.83H462.92v-3.9l3.55-.43c1-.14,1.14-.35,1.14-1.42V44.89c0-.78-.21-1.28-.92-1.49l-4-1.35.64-3.76h9.3l.57,4.19.21.07c3.76-2.91,7.24-5,12.57-5,3.41,0,7,1.21,8.73,4.54a21.24,21.24,0,0,1,12.57-4.54c8.09,0,10.51,5,10.51,13.21V69c0,1.14.07,1.28,1.14,1.42l4,.5v3.83Z"/><path d="M529,89.83v-3.9l5.11-.64c.85-.07,1.14-.5,1.56-1.49l4.12-9.44L527,44.1c-.35-.85-.64-1-1.49-1.21l-2.91-.71.85-3.91h14.7v3.91l-4.69.57,9.44,23.86,9.87-23.86L548,42.19l.78-3.91h14.06v3.91l-2.41.35a2.05,2.05,0,0,0-1.78,1.21L541.38,85.28l6.89.71v3.83Z"/></svg>