<svg id="svg2" xmlns="http://www.w3.org/2000/svg" xmlns:xlink="http://www.w3.org/1999/xlink" viewBox="0 0 600 600"><defs><style>.cls-1{fill:none;}.cls-2{clip-path:url(#clip-path);}.cls-3{fill:#00749a;}</style><clipPath id="clip-path"><rect class="cls-1" x="10" y="10" width="580" height="580.01"/></clipPath></defs><title>wordpress-icon</title><g class="cls-2"><path class="cls-3" d="M51.22,300c0,98.48,57.23,183.58,140.21,223.91L72.76,198.74A247.84,247.84,0,0,0,51.22,300Z"/><path class="cls-3" d="M468,287.44c0-30.75-11-52-20.52-68.61C434.83,198.33,423,181,423,160.48c0-22.87,17.34-44.16,41.77-44.16,1.1,0,2.15.14,3.23.2A248.74,248.74,0,0,0,92.14,163.36c5.84.18,11.35.29,16,.29,26,0,66.31-3.16,66.31-3.16,13.41-.79,15,18.91,1.6,20.49,0,0-13.48,1.59-28.48,2.37l90.6,269.48,54.45-163.29L253.85,183.35c-13.4-.79-26.09-2.37-26.09-2.37-13.41-.79-11.83-21.28,1.57-20.49,0,0,41.08,3.16,65.53,3.16,26,0,66.3-3.16,66.3-3.16,13.42-.79,15,18.91,1.6,20.49,0,0-13.5,1.58-28.47,2.37L424.2,450.79,449,367.86C459.77,333.45,468,308.74,468,287.44Z"/><path class="cls-3" d="M304.37,321.75,229.73,538.65a248.8,248.8,0,0,0,152.89-4,20.5,20.5,0,0,1-1.77-3.43Z"/><path class="cls-3" d="M518.3,180.63A191.22,191.22,0,0,1,520,206.21c0,25.25-4.71,53.63-18.92,89.11L425.07,515c74-43.13,123.71-123.26,123.71-215A247.48,247.48,0,0,0,518.3,180.63Z"/><path class="cls-3" d="M300,10C140.1,10,10,140.09,10,300S140.09,590,300,590,590,459.92,590,300,459.91,10,300,10Zm0,566.71C147.44,576.71,23.3,452.57,23.3,300S147.43,23.3,300,23.3,576.7,147.42,576.7,300,452.57,576.71,300,576.71Z"/></g></svg>